<svg xmlns="http://www.w3.org/2000/svg" xmlns:xlink="http://www.w3.org/1999/xlink" version="1.1" x="0px" y="0px" viewBox="0 0 20 25" enable-background="new 0 0 20 20" xml:space="preserve"><rect x="-167" y="-33" display="none" fill="#4BFB6C" width="198" height="87"/><path fill="#4BFB6C" d="M-106.005-1.411c0-10.267-8.322-18.589-18.589-18.589s-18.589,8.322-18.589,18.589c0,2.322,0.446,4.535,1.222,6.584h-0.009  l0.035,0.066c0.428,1.119,0.96,2.183,1.587,3.185L-124.594,40l15.753-31.576c0.627-1.004,1.159-2.066,1.59-3.185l0.032-0.066h-0.009  C-106.451,3.124-106.005,0.911-106.005-1.411z M-124.594,8.16c-5.082,0-9.203-4.12-9.203-9.203s4.121-9.203,9.203-9.203  s9.203,4.12,9.203,9.203S-119.512,8.16-124.594,8.16z"/><path fill="#4BFB6C" d="M-51.607,1.393C-51.607-5.452-57.156-11-64-11S-76.393-5.452-76.393,1.393c0,1.548,0.297,3.023,0.815,4.389h-0.006  l0.023,0.044c0.286,0.746,0.64,1.455,1.058,2.124L-64,29l10.502-21.05c0.418-0.669,0.772-1.378,1.06-2.124l0.021-0.044h-0.006  C-51.905,4.416-51.607,2.941-51.607,1.393z M-64,7.773c-3.388,0-6.135-2.746-6.135-6.135S-67.388-4.497-64-4.497  s6.135,2.747,6.135,6.135S-60.612,7.773-64,7.773z"/><path fill="#4BFB6C" d="M-11.706,5.294C-11.706,0.161-15.867-4-21-4s-9.294,4.161-9.294,9.294c0,1.161,0.223,2.268,0.611,3.292h-0.004l0.017,0.033  c0.214,0.559,0.48,1.091,0.793,1.593L-21,26l7.877-15.788c0.313-0.502,0.579-1.034,0.795-1.593l0.016-0.033h-0.004  C-11.929,7.562-11.706,6.456-11.706,5.294z M-21,10.08c-2.541,0-4.602-2.06-4.602-4.601S-23.541,0.877-21,0.877  s4.602,2.06,4.602,4.602S-18.459,10.08-21,10.08z"/><path fill="#4BFB6C" d="M16.196,6.196C16.196,2.774,13.422,0,10,0S3.804,2.774,3.804,6.196c0,0.774,0.149,1.512,0.408,2.195H4.208L4.22,8.413  c0.143,0.373,0.32,0.728,0.529,1.062L10,20l5.251-10.525c0.209-0.335,0.386-0.689,0.53-1.062l0.01-0.022h-0.003  C16.047,7.708,16.196,6.97,16.196,6.196z M10,9.386c-1.694,0-3.068-1.373-3.068-3.067S8.306,3.251,10,3.251s3.068,1.373,3.068,3.067  S11.694,9.386,10,9.386z"/><text x="0" y="35" fill="#4BFB6C" font-size="5px" font-weight="bold" font-family="'Helvetica Neue', Helvetica, Arial-Unicode, Arial, Sans-serif">Created by Alex Auda Samora</text><text x="0" y="40" fill="#4BFB6C" font-size="5px" font-weight="bold" font-family="'Helvetica Neue', Helvetica, Arial-Unicode, Arial, Sans-serif">from the Noun Project</text></svg>