<?xml version="1.0" encoding="iso-8859-1"?>
<!-- Generator: Adobe Illustrator 16.0.0, SVG Export Plug-In . SVG Version: 6.00 Build 0)  -->
<!DOCTYPE svg PUBLIC "-//W3C//DTD SVG 1.1//EN" "http://www.w3.org/Graphics/SVG/1.1/DTD/svg11.dtd">
<svg version="1.1" id="Capa_1" xmlns="http://www.w3.org/2000/svg" xmlns:xlink="http://www.w3.org/1999/xlink" x="0px" y="0px"
	 width="587.35px" height="587.35px" viewBox="0 0 587.35 587.35" style="enable-background:new 0 0 587.35 587.35;"
	 xml:space="preserve">
<g>
	<g>
		<path fill="#ffffff" d="M506.6,68.425c-44.199,0-80.75,36.55-80.75,80.75c0,30.6,17.85,57.8,43.35,71.4l-42.5,121.55
			c-4.25-0.851-9.35-1.7-14.449-1.7c-12.75,0-23.801,2.55-34.85,7.65l-94.35-98.601c4.25-10.2,6.8-21.25,6.8-32.3
			c0-44.2-36.55-80.75-80.75-80.75s-80.75,36.55-80.75,80.75c0,24.65,11.05,47.6,28.9,62.05l-40.8,86.7
			c-11.05-5.1-22.95-8.5-35.7-8.5c-44.2,0-80.75,36.55-80.75,80.75s36.55,80.75,80.75,80.75c44.2,0,80.75-36.55,80.75-80.75
			c0-19.55-6.8-36.55-17.85-51l43.35-92.65c6.8,1.7,13.6,2.551,21.25,2.551c20.4,0,39.1-7.65,53.55-20.4l89.25,91.8
			c-11.9,14.45-18.701,32.3-18.701,51.851c0,44.199,36.551,80.75,80.75,80.75c44.201,0,80.75-36.551,80.75-80.75
			c0-27.2-13.6-51.851-34.85-66.301l43.35-124.95c1.701,0,3.4,0,4.25,0c44.201,0,80.75-36.55,80.75-80.75
			C587.35,104.975,550.801,68.425,506.6,68.425z M81.6,484.925c-25.5,0-46.75-21.25-46.75-46.75s21.25-46.75,46.75-46.75
			s46.75,21.25,46.75,46.75S107.1,484.925,81.6,484.925z M209.1,263.925c-25.5,0-46.75-21.25-46.75-46.75s21.25-46.75,46.75-46.75
			s46.75,21.25,46.75,46.75S234.6,263.925,209.1,263.925z M413.1,467.925c-25.5,0-46.75-21.25-46.75-46.75s21.25-46.75,46.75-46.75
			s46.75,21.25,46.75,46.75S438.6,467.925,413.1,467.925z M506.6,195.925c-25.5,0-46.75-21.25-46.75-46.75s21.25-46.75,46.75-46.75
			s46.75,21.25,46.75,46.75S532.1,195.925,506.6,195.925z"/>
		<path fill="#ffffff" d="M515.1,115.175c-14.449,0-27.199,6.8-34.85,18.7c-2.551,4.25-1.699,9.35,2.551,11.9c1.699,0.85,3.398,1.7,5.1,1.7
			c2.549,0,5.1-1.7,6.799-3.4c4.25-7.65,11.9-11.9,20.4-11.9c5.1,0,8.5-3.4,8.5-8.5C523.6,119.425,520.199,115.175,515.1,115.175z"
			/>
	</g>
</g>
<g>
</g>
<g>
</g>
<g>
</g>
<g>
</g>
<g>
</g>
<g>
</g>
<g>
</g>
<g>
</g>
<g>
</g>
<g>
</g>
<g>
</g>
<g>
</g>
<g>
</g>
<g>
</g>
<g>
</g>
</svg>
