<?xml version="1.0" encoding="utf-8"?>
<!-- Generator: Adobe Illustrator 18.0.0, SVG Export Plug-In . SVG Version: 6.00 Build 0)  -->
<!DOCTYPE svg PUBLIC "-//W3C//DTD SVG 1.1//EN" "http://www.w3.org/Graphics/SVG/1.1/DTD/svg11.dtd">
<svg version="1.1"  id="screen" xmlns="http://www.w3.org/2000/svg" xmlns:xlink="http://www.w3.org/1999/xlink" x="0px" y="0px"
	 viewBox="0 0 40 40" enable-background="new 0 0 40 40" xml:space="preserve">
<g>
	<g>
		<g>
			<path fill="#ffffff" d="M25,25.5c-0.1,0-0.3,0-0.4-0.1l-10-10c-0.2-0.2-0.2-0.5,0-0.7s0.5-0.2,0.7,0l10,10c0.2,0.2,0.2,0.5,0,0.7
				C25.3,25.5,25.1,25.5,25,25.5z"/>
		</g>
		<g>
			<path fill="#ffffff" d="M15,25.5c-0.1,0-0.3,0-0.4-0.1c-0.2-0.2-0.2-0.5,0-0.7l10-10c0.2-0.2,0.5-0.2,0.7,0s0.2,0.5,0,0.7l-10,10
				C15.3,25.5,15.1,25.5,15,25.5z"/>
		</g>
	</g>
</g>
</svg>
