<?xml version="1.0" encoding="iso-8859-1"?>
<!-- Generator: Adobe Illustrator 16.0.0, SVG Export Plug-In . SVG Version: 6.00 Build 0)  -->
<!DOCTYPE svg PUBLIC "-//W3C//DTD SVG 1.1//EN" "http://www.w3.org/Graphics/SVG/1.1/DTD/svg11.dtd">
<svg version="1.1" id="Capa_1" xmlns="http://www.w3.org/2000/svg" xmlns:xlink="http://www.w3.org/1999/xlink" x="0px" y="0px"
	 width="65.001px" height="65.001px" viewBox="0 0 65.001 65.001" style="enable-background:new 0 0 65.001 65.001;"
	 xml:space="preserve">

		<g>
			<path fill="#ffffff" d="M65,57.568c0,3.828-3.104,6.933-6.932,6.933H6.932C3.104,64.5,0,61.396,0,57.568V7.432C0,3.604,3.104,0.5,6.932,0.5
				h51.136c3.828,0,6.933,3.104,6.933,6.932L65,57.568L65,57.568z M61,7.432C61,5.813,59.688,4.5,58.068,4.5H6.932
				C5.313,4.5,4,5.813,4,7.432v50.136C4,59.188,5.313,60.5,6.932,60.5h51.136c1.619,0,2.933-1.312,2.933-2.932L61,7.432L61,7.432z"
				/>
		</g>
		<g>
			<path fill="#ffffff" d="M62.619,15.5h-61c-0.553,0-1-0.447-1-1s0.447-1,1-1h61c0.552,0,1,0.447,1,1S63.171,15.5,62.619,15.5z"/>
		</g>
		<g>
			<path fill="#ffffff" d="M8.619,10.5h-1c-0.553,0-1-0.447-1-1s0.447-1,1-1h1c0.552,0,1,0.447,1,1S9.171,10.5,8.619,10.5z"/>
		</g>
		<g>
			<path fill="#ffffff" d="M15.619,10.5h-1c-0.553,0-1-0.447-1-1s0.447-1,1-1h1c0.552,0,1,0.447,1,1S16.171,10.5,15.619,10.5z"/>
		</g>
		<g>
			<path fill="#ffffff" d="M22.619,10.5h-1c-0.553,0-1-0.447-1-1s0.447-1,1-1h1c0.552,0,1,0.447,1,1S23.171,10.5,22.619,10.5z"/>
		</g>
		<g>
			<g>
				<path fill="#ffffff" d="M21.786,50.98c-0.291,0-0.58-0.127-0.777-0.369l-9.167-11.312c-0.297-0.367-0.297-0.893,0-1.26l5.647-6.97
					c0.348-0.428,0.978-0.493,1.406-0.147c0.43,0.348,0.495,0.978,0.147,1.406l-5.137,6.34l8.656,10.684
					c0.348,0.431,0.281,1.06-0.147,1.406C22.229,50.909,22.007,50.98,21.786,50.98z"/>
			</g>
			<g>
				<path fill="#ffffff" d="M20.871,29.484c-0.221,0-0.443-0.073-0.629-0.224c-0.429-0.348-0.495-0.978-0.147-1.406l0.914-1.127
					c0.349-0.429,0.978-0.494,1.406-0.146c0.428,0.348,0.495,0.978,0.147,1.406l-0.914,1.127
					C21.451,29.357,21.162,29.484,20.871,29.484z"/>
			</g>
			<g>
				<path fill="#ffffff" d="M43.452,50.98c-0.222,0-0.444-0.071-0.629-0.223c-0.431-0.348-0.495-0.977-0.147-1.406l8.656-10.684l-8.656-10.682
					c-0.348-0.43-0.281-1.06,0.147-1.407c0.427-0.347,1.058-0.281,1.405,0.147l9.166,11.313c0.299,0.367,0.299,0.893,0,1.26
					l-9.166,11.312C44.031,50.854,43.743,50.98,43.452,50.98z"/>
			</g>
			<g>
				<path fill="#ffffff" d="M28.452,45.668c-0.221,0-0.443-0.072-0.629-0.223c-0.429-0.348-0.495-0.978-0.147-1.406l9.167-11.313
					c0.349-0.428,0.978-0.494,1.406-0.148c0.429,0.348,0.495,0.979,0.147,1.408l-9.167,11.312
					C29.032,45.542,28.743,45.668,28.452,45.668z"/>
			</g>
		</g>


</svg>
