<?xml version="1.0" encoding="iso-8859-1"?>
<!-- Generator: Adobe Illustrator 16.0.0, SVG Export Plug-In . SVG Version: 6.00 Build 0)  -->
<!DOCTYPE svg PUBLIC "-//W3C//DTD SVG 1.1//EN" "http://www.w3.org/Graphics/SVG/1.1/DTD/svg11.dtd">
<svg version="1.1" id="Capa_1" xmlns="http://www.w3.org/2000/svg" xmlns:xlink="http://www.w3.org/1999/xlink" x="0px" y="0px"
	 width="65.001px" height="65.001px" viewBox="0 0 65.001 65.001" style="enable-background:new 0 0 65.001 65.001;"
	 xml:space="preserve">
<g>
	<g>
		<g>
			<path fill="#ffffff" d="M65,57.068c0,3.828-3.104,6.933-6.932,6.933H6.932C3.104,64.001,0,60.896,0,57.068V7.932C0,4.104,3.104,1,6.932,1h51.136
				c3.828,0,6.933,3.104,6.933,6.932L65,57.068L65,57.068z M61,7.932C61,6.313,59.688,5,58.068,5H6.932C5.313,5,4,6.313,4,7.932
				v49.136c0,1.619,1.313,2.933,2.932,2.933h51.136c1.619,0,2.933-1.313,2.933-2.933L61,7.932L61,7.932z"/>
		</g>
		<g>
			<path fill="#ffffff" d="M1.629,50.124c-0.197,0-0.397-0.06-0.572-0.183c-0.452-0.315-0.563-0.938-0.246-1.393L16.52,26.078
				c0.78-1.118,1.91-1.796,3.18-1.907c1.27-0.109,2.5,0.357,3.466,1.323l12.922,12.922c0.391,0.391,0.391,1.023,0,1.414
				s-1.023,0.391-1.414,0L21.751,26.908c-0.539-0.539-1.199-0.812-1.876-0.745c-0.67,0.059-1.279,0.436-1.716,1.061L2.449,49.695
				C2.255,49.975,1.944,50.124,1.629,50.124z"/>
		</g>
		<g>
			<path fill="#ffffff" d="M58.085,49.836c-0.246,0-0.493-0.092-0.687-0.273l-1.195-1.129c-0.401-0.379-0.42-1.012-0.04-1.414
				c0.378-0.399,1.012-0.418,1.413-0.039l1.195,1.129c0.4,0.38,0.42,1.013,0.039,1.412C58.615,49.73,58.352,49.836,58.085,49.836z"
				/>
		</g>
		<g>
			<path fill="#ffffff" d="M18.066,63.686c-0.207,0-0.417-0.063-0.596-0.199c-0.443-0.327-0.535-0.954-0.205-1.397l20.174-27.104
				c0.809-1.086,1.965-1.745,3.256-1.859c1.289-0.116,2.547,0.336,3.531,1.264l10.938,10.318c0.4,0.379,0.42,1.012,0.041,1.414
				c-0.38,0.4-1.014,0.42-1.414,0.041L42.854,35.844c-0.562-0.531-1.26-0.787-1.981-0.727c-0.716,0.062-1.364,0.439-1.828,1.061
				L18.869,63.282C18.673,63.545,18.372,63.686,18.066,63.686z"/>
		</g>
		<g>
			<path fill="#ffffff" d="M41.271,26.155c-4.766,0-8.642-3.877-8.642-8.642c0-4.765,3.876-8.641,8.642-8.641c4.765,0,8.642,3.876,8.642,8.641
				C49.913,22.278,46.035,26.155,41.271,26.155z M41.271,10.873c-3.662,0-6.642,2.979-6.642,6.641c0,3.662,2.979,6.642,6.642,6.642
				s6.642-2.979,6.642-6.642C47.913,13.851,44.934,10.873,41.271,10.873z"/>
		</g>
	</g>
</g>
<g>
</g>
<g>
</g>
<g>
</g>
<g>
</g>
<g>
</g>
<g>
</g>
<g>
</g>
<g>
</g>
<g>
</g>
<g>
</g>
<g>
</g>
<g>
</g>
<g>
</g>
<g>
</g>
<g>
</g>
</svg>
