<?xml version="1.0" encoding="iso-8859-1"?>
<!-- Generator: Adobe Illustrator 16.0.0, SVG Export Plug-In . SVG Version: 6.00 Build 0)  -->
<!DOCTYPE svg PUBLIC "-//W3C//DTD SVG 1.1//EN" "http://www.w3.org/Graphics/SVG/1.1/DTD/svg11.dtd">
<svg version="1.1" id="Capa_1" xmlns="http://www.w3.org/2000/svg" xmlns:xlink="http://www.w3.org/1999/xlink" x="0px" y="0px"
	 width="67.332px" height="67.333px" viewBox="0 0 67.332 67.333" style="enable-background:new 0 0 67.332 67.333;"
	 xml:space="preserve">
<g>
	<g>
		<g>
			<path fill="#ffffff" d="M9.063,59.805c-0.262,0-0.522-0.103-0.719-0.306c-1.101-1.137-1.706-2.635-1.705-4.217c0-0.551,0.448-0.998,1-0.998
				c0,0,0,0,0.001,0c0.552,0,0.999,0.447,0.999,1c-0.001,1.062,0.405,2.063,1.143,2.824c0.384,0.396,0.374,1.031-0.023,1.414
				C9.564,59.71,9.314,59.805,9.063,59.805z"/>
		</g>
		<g>
			<path fill="#ffffff" d="M49.062,51.805c-0.263,0-0.521-0.103-0.72-0.306c-1.101-1.137-1.706-2.635-1.704-4.216c0-0.552,0.447-0.999,1-0.999l0,0
				c0.553,0,1,0.447,1,1.001c-0.002,1.061,0.404,2.062,1.144,2.823c0.384,0.396,0.372,1.031-0.023,1.414
				C49.562,51.71,49.312,51.805,49.062,51.805z"/>
		</g>
		<g>
			<path fill="#ffffff" d="M12.417,61.402c-0.166,0-0.359-0.03-0.585-0.106c-0.524-0.174-0.809-0.736-0.635-1.264
				c0.163-0.492,0.671-0.771,1.169-0.66c0.104-0.019,0.215-0.023,0.334-0.023c0.553,0,1,0.445,1,1c0,0.525-0.407,0.959-0.924,0.998
				C12.674,61.378,12.555,61.402,12.417,61.402z"/>
		</g>
		<g>
			<path fill="#ffffff" d="M53.207,59.333c-6.617,0-12-5.383-12-11.999c0-6.617,5.383-12,12-12c5.688,0,12.021,1.461,12.287,1.521
				c0.834,0.194,1.45,0.898,1.534,1.752c0.046,0.439,1.009,10.865-4.35,16.778C60.31,58.003,57.12,59.333,53.207,59.333z
				 M53.207,39.333c-4.411,0-8,3.589-8,8s3.589,7.999,8,7.999c2.771,0,4.896-0.856,6.501-2.623
				c3.159-3.479,3.454-9.512,3.408-12.266C60.979,40.027,56.876,39.333,53.207,39.333z"/>
		</g>
		<g>
			<path fill="#ffffff" d="M65.04,40.605c-1.102,0-1.995-0.791-2-1.892l-0.167-35.95c-0.005-1.105,0.886-2.157,1.989-2.157c0.005,0,0.008,0,0.011,0
				c1.103,0,1.995,1.086,2,2.188l0.167,35.804c0.005,1.104-0.887,2.01-1.99,2.01C65.046,40.605,65.043,40.605,65.04,40.605z"/>
		</g>
		<g>
			<path fill="#ffffff" d="M12.208,67.333c-6.617,0-12-5.383-12-12s5.383-11.999,12-11.999c5.688,0,12.021,1.461,12.287,1.521
				c0.834,0.194,1.452,0.898,1.536,1.752c0.044,0.439,1.007,10.865-4.351,16.778C19.308,66.003,16.121,67.333,12.208,67.333z
				 M12.208,47.333c-4.411,0-8,3.589-8,7.999c0,4.412,3.589,8,8,8c2.771,0,4.897-0.856,6.501-2.623
				c3.159-3.479,3.454-9.512,3.408-12.266C19.981,48.027,15.876,47.333,12.208,47.333z"/>
		</g>
		<g>
			<path fill="#ffffff" d="M24.041,49.606c-1.101,0-1.995-0.791-2-1.894l-0.167-37.036c-0.005-1.104,0.887-2.072,1.991-2.072
				c0.003,0,0.006,0,0.009,0c1.101,0,1.995,1.002,2,2.104l0.167,36.932c0.005,1.104-0.887,1.965-1.991,1.965
				C24.046,49.606,24.043,49.606,24.041,49.606z"/>
		</g>
		<g>
			<path fill="#ffffff" d="M23.872,11.831c-0.941,0-1.779-0.667-1.963-1.625c-0.207-1.085,0.505-2.132,1.59-2.34l41-7.832
				c1.092-0.202,2.133,0.506,2.34,1.59c0.207,1.085-0.505,2.132-1.59,2.34l-41,7.832C24.122,11.819,23.996,11.831,23.872,11.831z"/>
		</g>
		<g>
			<path fill="#ffffff" d="M24.777,19.659c-0.941,0-1.779-0.666-1.963-1.625c-0.207-1.085,0.505-2.132,1.59-2.34l40.094-7.66
				c1.083-0.198,2.133,0.505,2.34,1.59s-0.505,2.132-1.59,2.34l-40.094,7.66C25.028,19.647,24.901,19.659,24.777,19.659z"/>
		</g>
	</g>
</g>
<g>
</g>
<g>
</g>
<g>
</g>
<g>
</g>
<g>
</g>
<g>
</g>
<g>
</g>
<g>
</g>
<g>
</g>
<g>
</g>
<g>
</g>
<g>
</g>
<g>
</g>
<g>
</g>
<g>
</g>
</svg>
