<?xml version="1.0" encoding="iso-8859-1"?>
<!-- Generator: Adobe Illustrator 16.0.0, SVG Export Plug-In . SVG Version: 6.00 Build 0)  -->
<!DOCTYPE svg PUBLIC "-//W3C//DTD SVG 1.1//EN" "http://www.w3.org/Graphics/SVG/1.1/DTD/svg11.dtd">
<svg version="1.1" id="Capa_1" xmlns="http://www.w3.org/2000/svg" xmlns:xlink="http://www.w3.org/1999/xlink" x="0px" y="0px"
	 width="64px" height="64px" viewBox="0 0 64 64" style="enable-background:new 0 0 64 64;" xml:space="preserve">
<g>
	<g>
		<g>
			<path fill="#ffffff" d="M2.435,63.924c-0.524,0-1.035-0.206-1.414-0.586l-0.435-0.434c-0.494-0.494-0.694-1.209-0.529-1.889
				c0.606-2.49,3.786-15.07,6.883-18.166L47.062,2.728c1.71-1.711,4.009-2.652,6.475-2.652c2.606,0,5.08,1.036,6.961,2.918
				l0.435,0.435c1.79,1.789,2.901,4.265,3.05,6.792c0.158,2.686-0.732,5.143-2.509,6.918L21.349,57.26
				c-3.111,3.111-15.943,6.059-18.484,6.617C2.722,63.91,2.578,63.924,2.435,63.924z M53.536,4.076c-1.396,0-2.69,0.525-3.646,1.48
				L9.768,45.678c-1.455,1.455-3.673,8.178-5.156,13.686c5.608-1.381,12.461-3.483,13.909-4.932L58.645,14.31
				c0.956-0.957,1.435-2.326,1.344-3.854c-0.092-1.563-0.777-3.094-1.885-4.199l-0.435-0.435
				C56.543,4.696,55.075,4.076,53.536,4.076z"/>
		</g>
		<g>
			<path fill="#ffffff" d="M56.956,18.171c-0.256,0-0.513-0.098-0.707-0.293L45.495,7.125c-0.392-0.391-0.392-1.023,0-1.414
				c0.391-0.391,1.022-0.391,1.414,0l10.754,10.754c0.391,0.391,0.391,1.023,0,1.414C57.468,18.074,57.212,18.171,56.956,18.171z"/>
		</g>
		<g>
			<path fill="#ffffff" d="M20.556,54.573c-0.256,0-0.512-0.099-0.707-0.293L9.094,43.523c-0.391-0.391-0.391-1.022,0-1.414
				c0.391-0.391,1.023-0.391,1.414,0l10.755,10.757c0.391,0.391,0.391,1.022,0,1.414C21.068,54.475,20.812,54.573,20.556,54.573z"/>
		</g>
		<g>
			<path fill="#ffffff" d="M12.69,59.708c-0.256,0-0.512-0.099-0.707-0.293l-6.889-6.892c-0.391-0.391-0.391-1.022,0-1.414
				c0.391-0.391,1.023-0.391,1.414,0L13.397,58c0.391,0.391,0.391,1.023,0,1.414C13.202,59.609,12.946,59.708,12.69,59.708z"/>
		</g>
		<g>
			<path fill="#ffffff" d="M13.938,47.954c-0.256,0-0.512-0.099-0.707-0.293c-0.391-0.392-0.391-1.022,0-1.414l29.783-29.782
				c0.391-0.391,1.023-0.391,1.414,0c0.391,0.391,0.391,1.023,0,1.414L14.645,47.661C14.45,47.855,14.194,47.954,13.938,47.954z"/>
		</g>
		<g>
			<path fill="#ffffff" d="M46.615,15.276c-0.257,0-0.513-0.098-0.707-0.293c-0.392-0.391-0.392-1.023,0-1.414l3.723-3.723
				c0.391-0.391,1.022-0.391,1.414,0c0.391,0.391,0.391,1.023,0,1.414l-3.724,3.723C47.127,15.178,46.871,15.276,46.615,15.276z"/>
		</g>
		<g>
			<path fill="#ffffff" d="M17.247,51.262c-0.256,0-0.512-0.098-0.707-0.293c-0.391-0.391-0.391-1.023,0-1.414l36.399-36.398
				c0.392-0.391,1.023-0.391,1.414,0c0.392,0.391,0.392,1.023,0,1.414L17.954,50.969C17.758,51.165,17.502,51.262,17.247,51.262z"/>
		</g>
	</g>
</g>
<g>
</g>
<g>
</g>
<g>
</g>
<g>
</g>
<g>
</g>
<g>
</g>
<g>
</g>
<g>
</g>
<g>
</g>
<g>
</g>
<g>
</g>
<g>
</g>
<g>
</g>
<g>
</g>
<g>
</g>
</svg>
