<?xml version="1.0" ?><svg enable-background="new 0 0 32 32" id="stroke" version="1.1" viewBox="0 0 32 32" xml:space="preserve" xmlns="http://www.w3.org/2000/svg" xmlns:xlink="http://www.w3.org/1999/xlink"><g><path d="M28.262,4.982c-0.216-0.171-0.53-0.137-0.703,0.08l-6.497,8.169l-4.133-3.234l0.834-1.066h-1.269   l-0.414,0.53c-0.553-0.173-1.177-0.008-1.554,0.474c-0.236,0.301-0.341,0.677-0.294,1.057c0.022,0.175,0.081,0.338,0.161,0.49   l-1.243,1.589H9.31c-0.276,0-0.5,0.224-0.5,0.5s0.224,0.5,0.5,0.5h5.592c0.276,0,0.5-0.224,0.5-0.5s-0.224-0.5-0.5-0.5h-0.484   l0.68-0.869l4.292,3.358l-1.613,2.061c-0.563,0.718-2.028,0.553-3.198-0.362c-0.605-0.473-1.047-1.069-1.244-1.678   c-0.059-0.181-0.077-0.348-0.085-0.51h-1.664l-1.258,1.608l-2.095,2.677c-0.261,0.332-0.376,0.746-0.324,1.165   c0.051,0.42,0.262,0.795,0.596,1.055c0,0.001,0,0.001,0.001,0.001l7.221,5.619c-7.291,0.011-9.623,0.298-9.623,0.652   c0,0.361,2.222,0.653,10.03,0.653c4.372,0,7.077-0.103,8.563-0.263h1.063c0.872,0,1.581-0.709,1.581-1.581v-0.744   c0-0.883-0.617-1.63-1.447-1.819l-3.724-1.349l-3.377-4.8l1.483-1.896c0.097,0.02,0.194,0.048,0.293,0.048   c0.426,0,0.848-0.188,1.131-0.549c0.376-0.482,0.386-1.126,0.087-1.62l6.555-8.243C28.514,5.468,28.478,5.154,28.262,4.982z    M26.341,26.655c0,0.32-0.261,0.581-0.581,0.581h-5.272c-0.915-0.021-1.95-0.035-3.13-0.041l-8.239-6.411   c-0.121-0.096-0.199-0.233-0.218-0.387c-0.019-0.154,0.023-0.306,0.119-0.428l1.753-2.24c0.284,0.341,0.495,0.772,0.588,1.221   c0.132,0.636,0.022,1.219-0.308,1.641c-0.082,0.105-0.119,0.239-0.103,0.371s0.086,0.252,0.191,0.334l6.486,4.992   c0.087,0.067,0.194,0.104,0.305,0.104h4.139c0.128,0,0.251-0.049,0.344-0.137c1.302-1.23,2.229-1.279,3.13-1.213   c0.057,0.004,0.106,0.028,0.16,0.043l0.189,0.068c0.265,0.149,0.447,0.431,0.447,0.757V26.655z M23.567,24.312   c-0.538,0.206-1.091,0.539-1.691,1.08h-3.773l-5.99-4.61c0.3-0.589,0.381-1.295,0.228-2.035c-0.143-0.686-0.483-1.319-0.947-1.81   l0.953-1.218c0.015,0.057,0.018,0.112,0.037,0.169c0.258,0.796,0.819,1.562,1.578,2.156c0.873,0.683,1.848,1.028,2.71,1.028   c0.531,0,1.012-0.14,1.408-0.404l0.5,0.71l-2.231,1.43c-0.232,0.148-0.301,0.458-0.151,0.69c0.096,0.149,0.257,0.23,0.421,0.23   c0.093,0,0.187-0.025,0.27-0.079l2.268-1.453l0.412,0.585l-1.797,1.137c-0.233,0.147-0.303,0.457-0.155,0.69   c0.096,0.15,0.258,0.232,0.423,0.232c0.092,0,0.185-0.025,0.268-0.077l1.838-1.163l0.397,0.564l-1.352,0.866   c-0.232,0.148-0.301,0.458-0.151,0.69c0.096,0.149,0.257,0.23,0.421,0.23c0.093,0,0.187-0.025,0.27-0.079l1.388-0.89l0.326,0.464   c0.06,0.083,0.143,0.147,0.239,0.182L23.567,24.312z M20.911,14.931c-0.147,0.188-0.421,0.22-0.606,0.074l-4.919-3.849   c-0.091-0.071-0.148-0.173-0.163-0.287c-0.014-0.115,0.018-0.228,0.089-0.319c0.147-0.189,0.419-0.219,0.607-0.075   c0,0,0,0.001,0.001,0.001s0.001,0,0.001,0l4.913,3.844c0,0,0,0,0,0c0,0,0,0,0,0l0.004,0.003   C21.024,14.471,21.058,14.743,20.911,14.931z" fill="#fff"/><path d="M10.411,7.932h0.994c0.276,0,0.5-0.224,0.5-0.5s-0.224-0.5-0.5-0.5h-0.994c-0.276,0-0.5,0.224-0.5,0.5   S10.135,7.932,10.411,7.932z" fill="#fff"/><path d="M13.216,7.932h6.289c0.276,0,0.5-0.224,0.5-0.5s-0.224-0.5-0.5-0.5h-0.179l0.979-1.251   c0.17-0.217,0.132-0.532-0.086-0.702c-0.216-0.17-0.531-0.134-0.701,0.085l-1.461,1.867h-4.841c-0.276,0-0.5,0.224-0.5,0.5   S12.939,7.932,13.216,7.932z" fill="#fff"/><path d="M6.815,14.07h0.73c0.276,0,0.5-0.224,0.5-0.5s-0.224-0.5-0.5-0.5h-0.73c-0.276,0-0.5,0.224-0.5,0.5   S6.539,14.07,6.815,14.07z" fill="#fff"/></g></svg>
